<svg xmlns="http://www.w3.org/2000/svg" xmlns:xlink="http://www.w3.org/1999/xlink" width="40" zoomAndPan="magnify" viewBox="0 0 30 30.000001" height="40" preserveAspectRatio="xMidYMid meet" version="1.0"><defs><clipPath id="f4e44cab32"><path d="M 5.410156 4.925781 L 24.277344 4.925781 L 24.277344 23.796875 L 5.410156 23.796875 Z M 5.410156 4.925781 " clip-rule="nonzero"/></clipPath></defs><g clip-path="url(#f4e44cab32)"><path fill="#000000" d="M 10.886719 4.925781 C 7.871094 4.925781 5.410156 7.386719 5.410156 10.402344 L 5.410156 18.324219 C 5.410156 21.335938 7.871094 23.796875 10.886719 23.796875 L 18.808594 23.796875 C 21.816406 23.796875 24.277344 21.335938 24.277344 18.316406 L 24.277344 10.402344 C 24.277344 7.386719 21.816406 4.925781 18.800781 4.925781 Z M 10.886719 6.375 L 18.800781 6.375 C 21.035156 6.375 22.828125 8.167969 22.828125 10.402344 L 22.828125 18.316406 C 22.828125 20.550781 21.035156 22.34375 18.808594 22.34375 L 10.886719 22.34375 C 8.652344 22.34375 6.859375 20.550781 6.859375 18.324219 L 6.859375 10.402344 C 6.859375 8.167969 8.652344 6.375 10.886719 6.375 Z M 20.648438 7.828125 C 20.246094 7.828125 19.925781 8.152344 19.925781 8.554688 C 19.925781 8.957031 20.246094 9.277344 20.648438 9.277344 C 21.054688 9.277344 21.375 8.957031 21.375 8.554688 C 21.375 8.152344 21.054688 7.828125 20.648438 7.828125 Z M 14.84375 9.277344 C 12.046875 9.277344 9.761719 11.5625 9.761719 14.359375 C 9.761719 17.15625 12.046875 19.441406 14.84375 19.441406 C 17.640625 19.441406 19.925781 17.15625 19.925781 14.359375 C 19.925781 11.5625 17.640625 9.277344 14.84375 9.277344 Z M 14.84375 10.730469 C 16.855469 10.730469 18.472656 12.347656 18.472656 14.359375 C 18.472656 16.371094 16.855469 17.988281 14.84375 17.988281 C 12.832031 17.988281 11.214844 16.371094 11.214844 14.359375 C 11.214844 12.347656 12.832031 10.730469 14.84375 10.730469 Z M 14.84375 10.730469 " fill-opacity="1" fill-rule="nonzero"/></g></svg>