<svg xmlns="http://www.w3.org/2000/svg" xmlns:xlink="http://www.w3.org/1999/xlink" width="40" zoomAndPan="magnify" viewBox="0 0 30 30.000001" height="40" preserveAspectRatio="xMidYMid meet" version="1.0"><defs><clipPath id="02943ad014"><path d="M 4.664062 5 L 24.988281 5 L 24.988281 23.851562 L 4.664062 23.851562 Z M 4.664062 5 " clip-rule="nonzero"/></clipPath></defs><g clip-path="url(#02943ad014)"><path fill="#000000" d="M 23.40625 5.167969 C 23.144531 5.179688 22.898438 5.257812 22.679688 5.339844 L 22.675781 5.339844 C 22.457031 5.429688 21.398438 5.878906 19.796875 6.554688 C 18.195312 7.234375 16.113281 8.113281 14.046875 8.992188 C 9.925781 10.738281 5.871094 12.460938 5.871094 12.460938 L 5.917969 12.441406 C 5.917969 12.441406 5.636719 12.53125 5.347656 12.734375 C 5.199219 12.832031 5.03125 12.96875 4.890625 13.179688 C 4.746094 13.390625 4.632812 13.714844 4.675781 14.046875 C 4.746094 14.613281 5.109375 14.953125 5.371094 15.140625 C 5.636719 15.332031 5.886719 15.417969 5.886719 15.417969 L 5.894531 15.417969 L 9.695312 16.707031 C 9.867188 17.257812 10.855469 20.527344 11.09375 21.28125 C 11.230469 21.730469 11.367188 22.011719 11.539062 22.226562 C 11.621094 22.335938 11.71875 22.429688 11.835938 22.503906 C 11.878906 22.53125 11.929688 22.550781 11.976562 22.570312 C 11.992188 22.578125 12.007812 22.582031 12.027344 22.585938 L 11.984375 22.578125 C 12 22.578125 12.007812 22.589844 12.015625 22.589844 C 12.046875 22.601562 12.066406 22.605469 12.109375 22.609375 C 12.710938 22.792969 13.195312 22.417969 13.195312 22.417969 L 13.222656 22.394531 L 15.464844 20.339844 L 19.226562 23.242188 L 19.3125 23.28125 C 20.097656 23.625 20.890625 23.433594 21.3125 23.09375 C 21.734375 22.75 21.898438 22.3125 21.898438 22.3125 L 21.925781 22.242188 L 24.832031 7.253906 C 24.914062 6.882812 24.9375 6.535156 24.847656 6.199219 C 24.753906 5.863281 24.519531 5.546875 24.238281 5.378906 C 23.953125 5.207031 23.667969 5.15625 23.40625 5.167969 Z M 23.328125 6.773438 C 23.324219 6.824219 23.335938 6.816406 23.3125 6.914062 L 23.3125 6.921875 L 20.433594 21.757812 C 20.421875 21.777344 20.398438 21.824219 20.339844 21.871094 C 20.28125 21.917969 20.230469 21.949219 19.980469 21.847656 L 15.378906 18.296875 L 12.597656 20.847656 L 13.179688 17.09375 C 13.179688 17.09375 20.390625 10.332031 20.699219 10.039062 C 21.011719 9.75 20.90625 9.6875 20.90625 9.6875 C 20.929688 9.332031 20.4375 9.585938 20.4375 9.585938 L 10.957031 15.496094 L 10.953125 15.480469 L 6.410156 13.941406 L 6.410156 13.9375 C 6.40625 13.9375 6.402344 13.933594 6.398438 13.933594 C 6.402344 13.933594 6.421875 13.925781 6.421875 13.925781 L 6.449219 13.914062 L 6.472656 13.902344 C 6.472656 13.902344 10.527344 12.183594 14.652344 10.4375 C 16.71875 9.558594 18.800781 8.679688 20.398438 8 C 22 7.324219 23.183594 6.828125 23.25 6.800781 C 23.3125 6.773438 23.28125 6.773438 23.328125 6.773438 Z M 23.328125 6.773438 " fill-opacity="1" fill-rule="nonzero"/></g></svg>