<svg xmlns="http://www.w3.org/2000/svg" xmlns:xlink="http://www.w3.org/1999/xlink" width="40" zoomAndPan="magnify" viewBox="0 0 30 30.000001" height="40" preserveAspectRatio="xMidYMid meet" version="1.0"><defs><clipPath id="829c7594f1"><path d="M 4.457031 6.675781 L 25.503906 6.675781 L 25.503906 22.640625 L 4.457031 22.640625 Z M 4.457031 6.675781 " clip-rule="nonzero"/></clipPath></defs><g clip-path="url(#829c7594f1)"><path fill="#000000" d="M 24.917969 9.429688 C 24.722656 8.332031 23.796875 7.535156 22.71875 7.289062 C 21.109375 6.9375 18.128906 6.691406 14.90625 6.691406 C 11.683594 6.691406 8.65625 6.9375 7.042969 7.289062 C 5.96875 7.535156 5.042969 8.28125 4.847656 9.429688 C 4.652344 10.675781 4.457031 12.417969 4.457031 14.65625 C 4.457031 16.898438 4.652344 18.640625 4.894531 19.886719 C 5.089844 20.980469 6.019531 21.78125 7.09375 22.027344 C 8.800781 22.375 11.730469 22.625 14.957031 22.625 C 18.179688 22.625 21.109375 22.375 22.820312 22.027344 C 23.894531 21.78125 24.820312 21.03125 25.015625 19.886719 C 25.210938 18.640625 25.457031 16.847656 25.503906 14.65625 C 25.40625 12.417969 25.160156 10.675781 24.917969 9.429688 Z M 12.269531 18.144531 L 12.269531 11.171875 L 18.226562 14.65625 Z M 12.269531 18.144531 " fill-opacity="1" fill-rule="nonzero"/></g></svg>